<?xml version="1.0" encoding="UTF-8"?>
<svg id="Layer_1" data-name="Layer 1" xmlns="http://www.w3.org/2000/svg" viewBox="0 0 581.719 449.657">
  <defs>
    <style>
      .cls-1 {
        fill: none;
        stroke: #588157;
        stroke-miterlimit: 10;
        stroke-width: 12px;
      }

      .cls-2 {
        fill: #588157;
      }
    </style>
  </defs>
  <g>
    <path class="cls-2" d="m224.432,252.257l-12.514-12.514-27.737,27.735-15.334-15.344-15.313-15.363,27.706-27.705-12.512-12.512-27.723,27.721-79.872-79.921L5.366,200.121l37.895,37.897L0,281.275l42.002,42.002-1.754,1.754c-15.355,15.359-15.355,40.348,0,55.703,7.677,7.682,17.765,11.518,27.849,11.518s20.176-3.836,27.853-11.518l1.754-1.754,41.925,41.925,43.329-43.188,37.903,37.904,55.703-55.703-79.872-79.921,27.739-27.74Zm-140.992,115.966c-8.455,8.459-22.215,8.459-30.679,0-8.455-8.455-8.455-22.22,0-30.679l1.754-1.754,30.679,30.679-1.754,1.754Zm56.208,27.676l-29.43-29.43-55.703-55.703-29.491-29.491,30.748-30.743,114.672,114.676-30.795,30.691Zm111.893-35.98l-30.679,30.679-25.371-25.372.002-.002-69.863-69.86L30.389,200.121l30.744-30.744,93.46,93.526,29.55,29.643.037-.037,67.36,67.41Z"/>
    <polygon class="cls-1" points="216.49 251.519 254.608 213.381 222.814 223.395 262.362 159.399 221.89 186.376 221.922 152.038 169.469 204.499 216.49 251.519"/>
  </g>
  <g>
    <path class="cls-2" d="m402.697,193.838l-12.514,12.514,27.735,27.737-15.344,15.334-15.363,15.313-27.705-27.706-12.512,12.512,27.721,27.723-79.921,79.872,55.768,55.768,37.897-37.895,43.257,43.26,42.002-42.002,1.754,1.754c15.359,15.355,40.348,15.355,55.703,0,7.682-7.677,11.518-17.765,11.518-27.849s-3.836-20.176-11.518-27.853l-1.754-1.754,41.925-41.925-43.188-43.329,37.904-37.903-55.703-55.703-79.921,79.872-27.74-27.739Zm115.966,140.992c8.459,8.455,8.459,22.215,0,30.679-8.455,8.455-22.22,8.455-30.679,0l-1.754-1.754,30.679-30.679,1.754,1.754Zm27.676-56.208l-29.43,29.43-55.703,55.703-29.491,29.491-30.743-30.748,114.676-114.672,30.691,30.795Zm-35.98-111.893l30.679,30.679-25.372,25.371-.002-.002-69.86,69.863-95.242,95.241-30.744-30.744,93.526-93.46,29.643-29.55-.037-.037,67.41-67.36Z"/>
    <polygon class="cls-1" points="396.288 195.755 382.928 182.292 344.113 156.127 361.603 209.42 299.901 182.673 316.147 209.963 348.749 242.875 396.288 195.755 396.288 195.755"/>
  </g>
</svg>