<?xml version="1.0" encoding="UTF-8"?>
<svg id="Layer_1" data-name="Layer 1" xmlns="http://www.w3.org/2000/svg" xmlns:xlink="http://www.w3.org/1999/xlink" viewBox="0 0 2658.013 544.821">
  <defs>
    <style>
      .cls-1 {
        fill: url(#linear-gradient-2);
      }

      .cls-2 {
        clip-path: url(#clippath-11);
      }

      .cls-3 {
        fill: #102770;
      }

      .cls-3, .cls-4 {
        fill-rule: evenodd;
      }

      .cls-5 {
        stroke: #231916;
        stroke-miterlimit: 22.926;
        stroke-width: .567px;
      }

      .cls-5, .cls-6 {
        fill: none;
      }

      .cls-7 {
        fill: url(#linear-gradient-15);
      }

      .cls-8 {
        fill: url(#linear-gradient-14);
      }

      .cls-9 {
        fill: url(#linear-gradient-6);
      }

      .cls-10 {
        clip-path: url(#clippath-2);
      }

      .cls-11 {
        clip-path: url(#clippath-13);
      }

      .cls-12 {
        clip-path: url(#clippath-6);
      }

      .cls-13 {
        fill: url(#linear-gradient-11);
      }

      .cls-14 {
        clip-path: url(#clippath-7);
      }

      .cls-4 {
        fill: #990038;
      }

      .cls-15 {
        clip-path: url(#clippath-1);
      }

      .cls-16 {
        clip-path: url(#clippath-4);
      }

      .cls-17 {
        fill: url(#linear-gradient-10);
      }

      .cls-18 {
        fill: url(#linear-gradient-16);
      }

      .cls-19 {
        clip-path: url(#clippath-12);
      }

      .cls-20 {
        fill: url(#linear-gradient-5);
      }

      .cls-21 {
        clip-path: url(#clippath-9);
      }

      .cls-22 {
        fill: #231916;
      }

      .cls-23 {
        clip-path: url(#clippath);
      }

      .cls-6 {
        clip-rule: evenodd;
      }

      .cls-24 {
        clip-path: url(#clippath-3);
      }

      .cls-25 {
        fill: url(#linear-gradient-7);
      }

      .cls-26 {
        clip-path: url(#clippath-8);
      }

      .cls-27 {
        fill: url(#linear-gradient-9);
      }

      .cls-28 {
        mask: url(#mask-1);
      }

      .cls-29 {
        mask: url(#mask);
      }

      .cls-30 {
        fill: url(#linear-gradient-3);
      }

      .cls-31 {
        clip-path: url(#clippath-5);
      }

      .cls-32 {
        fill: url(#linear-gradient);
      }

      .cls-33 {
        clip-path: url(#clippath-10);
      }

      .cls-34 {
        fill: url(#linear-gradient-4);
      }

      .cls-35 {
        fill: url(#linear-gradient-8);
      }

      .cls-36 {
        fill: url(#linear-gradient-12);
      }

      .cls-37 {
        fill: url(#linear-gradient-13);
      }
    </style>
    <clipPath id="clippath">
      <path class="cls-6" d="m139.802,488.124c97.731-22.662,150.217-70.603,171.524-136.468-29.979,4.1-43.535,10.843-56.662,13.254-24.616,60.342-74.59,100.989-114.862,123.214"/>
    </clipPath>
    <linearGradient id="linear-gradient" x1="251.834" y1="400.082" x2="80.677" y2="529.136" gradientUnits="userSpaceOnUse">
      <stop offset="0" stop-color="#00478f"/>
      <stop offset="1" stop-color="#29c4ff"/>
    </linearGradient>
    <clipPath id="clippath-1">
      <path class="cls-6" d="m179.994,528.543c89.187-45.941,128.311-105.291,132.812-174.369-28.058,11.328-39.546,21.189-51.68,26.747-9.064,64.537-47.542,116.199-81.132,147.623"/>
    </clipPath>
    <linearGradient id="linear-gradient-2" x1="278.908" y1="397.968" x2="137.406" y2="586.844" xlink:href="#linear-gradient"/>
    <clipPath id="clippath-2">
      <path class="cls-6" d="m238.968,544.821c61.605-56.944,79.872-113.51,68.066-170.179-20.079,15.396-27.132,25.909-35.669,33.098,7.114,54.029-12.35,104.255-32.397,137.081"/>
    </clipPath>
    <linearGradient id="linear-gradient-3" x1="295.028" y1="396.895" x2="253.309" y2="559.475" xlink:href="#linear-gradient"/>
    <clipPath id="clippath-3">
      <path class="cls-6" d="m21.079,196.266c33.874-157.797,243.908,42.337,274.666,101.658,0,0,68.192,135.122-17.68,241.199,56.929-117.306-37.246-167.773-120.886-197.607-93.329-33.291-79.193-102.335-112.013-118.919-16.23-8.201-33.475.011-42.713,16.605-2.454-14.519-1.145-25.729,18.625-42.936"/>
    </clipPath>
    <linearGradient id="linear-gradient-4" x1="161.867" y1="68.683" x2="187.124" y2="345.241" gradientUnits="userSpaceOnUse">
      <stop offset="0" stop-color="#ffce4b"/>
      <stop offset="1" stop-color="#d3226f"/>
    </linearGradient>
    <linearGradient id="linear-gradient-5" x1="-2060.231" y1="675.742" x2="-2293.852" y2="371.401" gradientTransform="translate(2282.223 -226.232)" gradientUnits="userSpaceOnUse">
      <stop offset="0" stop-color="#fff"/>
      <stop offset="1" stop-color="#000"/>
    </linearGradient>
    <mask id="mask" x="2.454" y="195.394" width="300.206" height="327.325" maskUnits="userSpaceOnUse">
      <rect class="cls-20" x="2.454" y="195.394" width="300.206" height="327.325"/>
    </mask>
    <clipPath id="clippath-4">
      <path class="cls-6" d="m200.856,355.275c20.25-50.013,15.384-87.934-7.01-117.678-7.467,14.46-13.269,26.79-16.268,33.313,13.391,34.319,22.508,69.068,23.278,84.365"/>
    </clipPath>
    <linearGradient id="linear-gradient-6" x1="198.024" y1="284.132" x2="208.788" y2="384.65" gradientUnits="userSpaceOnUse">
      <stop offset="0" stop-color="#00478f"/>
      <stop offset="1" stop-color="#51f4e9"/>
    </linearGradient>
    <clipPath id="clippath-5">
      <path class="cls-6" d="m239.379,362.766c20.586-73.001,7.944-125.236-27.93-163.343-8.204,21.355-14.412,39.477-17.596,49.053,24,45.888,42.093,93.035,45.526,114.29"/>
    </clipPath>
    <linearGradient id="linear-gradient-7" x1="223.413" y1="256.162" x2="245.921" y2="416.669" xlink:href="#linear-gradient"/>
    <clipPath id="clippath-6">
      <path class="cls-6" d="m295.094,360.909c10.935-83.176-11.203-138.342-56.523-174.353-5.587,24.678-11.831,41.087-13.795,52.074,33.56,46.415,63.183,99.56,70.319,122.279"/>
    </clipPath>
    <linearGradient id="linear-gradient-8" x1="227.998" y1="199.273" x2="308.536" y2="359.596" gradientUnits="userSpaceOnUse">
      <stop offset="0" stop-color="#003780"/>
      <stop offset="1" stop-color="#b222d3"/>
    </linearGradient>
    <clipPath id="clippath-7">
      <path class="cls-6" d="m338.604,358.384c15.008-94.615-18.289-150.475-81.819-182.925-4.905,9.036-9.478,17.797-13.603,25.912,44.654,52.306,87.152,128,95.422,157.013"/>
    </clipPath>
    <linearGradient id="linear-gradient-9" x1="302.02" y1="269.341" x2="403.583" y2="337.156" gradientUnits="userSpaceOnUse">
      <stop offset="0" stop-color="#4e046d"/>
      <stop offset="1" stop-color="#ff8bc7"/>
    </linearGradient>
    <clipPath id="clippath-8">
      <path class="cls-6" d="m422.468,328.882c-18.147-108.952-78.14-152.949-163.399-159.371-3.661,6.623-7.148,13.137-10.414,19.386,68.248,34.323,153.269,109.962,173.812,139.985"/>
    </clipPath>
    <linearGradient id="linear-gradient-10" x1="258.805" y1="180.298" x2="464.858" y2="365.256" xlink:href="#linear-gradient-9"/>
    <clipPath id="clippath-9">
      <path class="cls-6" d="m496.92,276.505c-55.66-111.743-134.049-142.999-227.04-125.943-5.598,9.482-10.945,19.067-15.899,28.286,88.74,15.544,209.582,71.032,242.939,97.657"/>
    </clipPath>
    <linearGradient id="linear-gradient-11" x1="353.737" y1="193.945" x2="508.627" y2="272.843" gradientUnits="userSpaceOnUse">
      <stop offset="0" stop-color="#b91c58"/>
      <stop offset="1" stop-color="#f95c97"/>
    </linearGradient>
    <clipPath id="clippath-10">
      <path class="cls-6" d="m531.894,213.043c-72.95-102.429-155.931-120.599-245.874-88.271-6.329,9.471-12.532,19.563-18.432,29.705,90.319-.945,225.932,36.752,264.305,58.566"/>
    </clipPath>
    <linearGradient id="linear-gradient-12" x1="313.062" y1="136.573" x2="566.89" y2="183.926" gradientUnits="userSpaceOnUse">
      <stop offset="0" stop-color="#b91c58"/>
      <stop offset="1" stop-color="#ff8bc7"/>
    </linearGradient>
    <clipPath id="clippath-11">
      <path class="cls-6" d="m517.078,141.079c-73.768-74.893-144.64-78.289-214.586-38.964-6.639,8.255-13.312,17.71-19.818,27.733,72.767-15.915,198.477-2.208,234.404,11.231"/>
    </clipPath>
    <linearGradient id="linear-gradient-13" x1="504.585" y1="120.284" x2="330.57" y2="89.789" xlink:href="#linear-gradient-4"/>
    <clipPath id="clippath-12">
      <path class="cls-6" d="m233.479,224.044c48.402-82.155,104.09-188.611,251.061-203.308C334.68,0,246.712,107.812,181.119,183.504c-46.891,54.111-82.347,91.807-120.805,54.388,12.755,21.289,19.013,56.418,57.12,83.481,53.214,3.729,82.924-41.11,116.045-97.328"/>
    </clipPath>
    <linearGradient id="linear-gradient-14" x1="201.197" y1="344.211" x2="307.906" y2="72.07" gradientUnits="userSpaceOnUse">
      <stop offset="0" stop-color="#00478f"/>
      <stop offset="1" stop-color="#c11fda"/>
    </linearGradient>
    <clipPath id="clippath-13">
      <path class="cls-6" d="m532.527,78.824c-78.295-55.564-146.71-29.47-146.71-29.47-37.633,19.772-66.33,47.449-89.995,77.64,33.519-42.249,195.539-55.754,236.705-48.17"/>
    </clipPath>
    <linearGradient id="linear-gradient-15" x1="507.923" y1="84.385" x2="264.994" y2="60.395" xlink:href="#linear-gradient-4"/>
    <linearGradient id="linear-gradient-16" x1="-2371.848" y1="909.468" x2="-1969.008" y2="664.477" gradientTransform="translate(2422.353 -597.884)" xlink:href="#linear-gradient-5"/>
    <mask id="mask-1" x="78.289" y="20.719" width="406.251" height="300.871" maskUnits="userSpaceOnUse">
      <rect class="cls-18" x="78.289" y="20.719" width="406.251" height="300.871"/>
    </mask>
  </defs>
  <path class="cls-22" d="m2641.838,403.33h16.176v-213.952h-20.144l-80.881,124.678-81.796-124.678h-19.533v213.952h16.481v-190.094l82.406,125.288h5.494l81.796-125.288v190.094Zm-247.524-213.952v132.766c0,91.562-131.24,91.868-131.24,0v-132.766h-16.176v132.766c0,112.012,163.592,111.707,163.592,0v-132.766h-16.176Zm-188.619,33.573c-21.059-31.436-47.612-36.32-78.133-36.32-35.099,0-82.101,14.04-81.186,59.21,0,39.372,39.983,47.308,79.049,54.938,35.1,6.714,70.503,13.734,70.198,45.782,0,37.846-41.814,45.17-68.062,45.17s-59.821-12.819-72.944-38.761l-14.65,7.325c16.481,32.658,54.327,46.392,87.595,46.392,35.709,0,84.238-11.598,84.543-59.821,0-46.087-42.73-53.412-83.933-61.347-36.014-6.714-65.314-13.124-65.314-40.288,0-34.184,39.677-43.34,64.704-43.34,24.112.305,49.139,3.968,64.705,28.995l13.429-7.936Zm-257.901,106.518c92.783,0,92.783-140.091,0-140.091h-93.699v213.952h16.482v-73.861h77.217Zm0-124.83c71.114,0,71.114,109.875,0,109.875h-77.217v-109.875h77.217Zm-140.701,198.691v-213.952h-16.176v213.952h16.176Zm-160.845,0h40.288v-213.341h-46.087l-66.841,91.715-66.84-91.715h-46.392v213.341h40.288v-155.097l68.062,92.936h7.935l69.588-92.631v154.792Zm-217.309-39.677h-119.948v-48.223h115.675v-37.541h-115.675v-49.444h119.948v-39.067h-159.93v213.952h159.93v-39.677Zm-263.395-136.734c25.333,0,36.625,17.143,36.625,34.336s-10.988,34.336-36.625,34.336h-61.347v-68.672h61.347Zm87.595,173.664l-64.704-72.945c40.593-8.241,54.021-37.846,54.021-67.299,0-37.083-26.552-70.656-76.912-70.961-33.878.305-67.756,0-101.635,0v213.952h40.288v-71.419h38.761l62.262,71.419h47.918v-2.747Zm-328.71-178.547c50.359,0,70.503,40.288,69.892,76.302-.61,35.1-19.533,72.945-69.892,72.945s-69.283-37.541-70.198-72.64c-.916-36.014,19.838-76.607,70.198-76.607Zm0-36.625c-73.86,0-109.875,56.463-109.875,112.622s34.794,110.181,109.875,110.181,108.96-55.243,109.57-110.486c.61-55.853-36.014-112.317-109.57-112.317Zm-272.552,3.968v213.952h150.163v-37.236h-109.875v-176.716h-40.288Z"/>
  <g>
    <g class="cls-23">
      <rect class="cls-32" x="139.802" y="351.656" width="171.524" height="136.468"/>
    </g>
    <g class="cls-15">
      <rect class="cls-1" x="179.994" y="354.174" width="132.812" height="174.369"/>
    </g>
    <g class="cls-10">
      <rect class="cls-30" x="238.968" y="374.642" width="79.872" height="170.179"/>
    </g>
    <g class="cls-24">
      <rect class="cls-34" y="38.469" width="363.938" height="500.654"/>
    </g>
    <g class="cls-29">
      <path class="cls-4" d="m285.22,522.719c40.767-105.687-48.408-152.798-128.04-181.203-93.329-33.291-79.193-102.335-112.013-118.919-16.23-8.201-33.475.011-42.713,16.605,0,0,33.195-107.353,168.887,14.044,0,0,188.398,84.385,113.878,269.473"/>
    </g>
    <path class="cls-5" d="m60.314,237.892C152.568,327.654,227.547-14.823,484.541,20.736,236.996,45.49,248.413,330.552,117.434,321.372"/>
    <g class="cls-16">
      <rect class="cls-9" x="177.578" y="237.597" width="43.528" height="117.678"/>
    </g>
    <g class="cls-31">
      <rect class="cls-25" x="193.853" y="199.422" width="66.112" height="163.343"/>
    </g>
    <g class="cls-12">
      <rect class="cls-35" x="224.776" y="186.556" width="81.253" height="174.353"/>
    </g>
    <g class="cls-14">
      <rect class="cls-27" x="243.182" y="175.459" width="110.431" height="182.925"/>
    </g>
    <g class="cls-26">
      <rect class="cls-17" x="248.655" y="169.511" width="173.812" height="159.371"/>
    </g>
    <g class="cls-21">
      <rect class="cls-13" x="253.981" y="133.506" width="242.939" height="142.999"/>
    </g>
    <g class="cls-33">
      <rect class="cls-36" x="267.588" y="92.443" width="264.305" height="120.599"/>
    </g>
    <g class="cls-2">
      <rect class="cls-37" x="282.675" y="62.789" width="234.404" height="78.289"/>
    </g>
    <g class="cls-19">
      <rect class="cls-8" x="60.314" width="424.227" height="325.102"/>
    </g>
    <g class="cls-11">
      <rect class="cls-7" x="295.821" y="23.26" width="236.705" height="103.734"/>
    </g>
    <g class="cls-28">
      <path class="cls-3" d="m211.45,199.423c-83.978,129.362-133.161,75.995-133.16,75.995,7.992,15.435,19.211,31.798,39.145,45.954,53.214,3.729,82.924-41.11,116.045-97.328,48.402-82.155,104.09-188.611,251.061-203.308-171.09-2.044-273.091,178.687-273.091,178.687"/>
    </g>
  </g>
</svg>