<?xml version="1.0" encoding="UTF-8"?>
<svg data-name="Слой 1" xmlns="http://www.w3.org/2000/svg" id='logo-animated'
  viewBox="0 0 409.435 334.134">
  <defs>
    <style>
      .cls-1anim {
      fill: #588157;
      fill-rule: evenodd;
      }
    </style>
  </defs>
  <polygon class="cls-1anim"
    points="51.192 327.595 182.212 .043 207.914 0 328.583 201.116 296.663 201.473 197.443 35.976 80.72 327.787 51.192 327.595" />
  <path class="cls-1anim"
    d="m387.352,213.071c-18.92-17.931-41.412-19.277-46.967-19.452-39.121-.006-78.241-.012-117.362-.018v-77.768s117.362,0,117.362,0v-21.533h-144.951s0,239.835,0,239.835l144.951-.018c4.887-.225,31.28-1.919,50.982-24.045,16.723-18.781,17.932-40.275,18.067-46.203-.057-4.742-.835-30.662-22.082-50.797Zm-15.918,78.291c-10.654,12.356-24.612,14.371-27.851,14.754l-119.927.228v-85.556c39.975.075,79.951.15,119.927.226,2.96.294,18.022,2.094,28.851,15.349,9.142,11.19,9.529,23.52,9.513,27.09-.039,3.497-.601,16.415-10.513,27.91Z" />
  <path class="cls-1anim"
    d="m197.434,220.762l-95.744-.005c-12.482-.064-30.183-1.476-50.256-7.611-23.565-7.202-40.783-17.975-51.435-25.848,5.658-6.845,11.315-13.691,16.973-20.536,7.554,5.427,17.695,11.649,30.462,16.94,16.854,6.985,32.149,9.805,43.281,10.994,35.573-.311,71.146-.623,106.719-.934v27Z" />
</svg>