<?xml version="1.0" encoding="UTF-8"?>
<svg id="_Слой_1" data-name="Слой 1" xmlns="http://www.w3.org/2000/svg" viewBox="0 0 741.45 202.772">
  <defs>
    <style>
      .cls-1 {
      fill: #588157;
      fill-rule: evenodd;
      }
    </style>
  </defs>
  <g>
    <polygon class="cls-1"
      points="30.147 192.921 107.305 .025 122.441 0 193.503 118.438 174.706 118.648 116.275 21.186 47.536 193.034 30.147 192.921" />
    <path class="cls-1"
      d="m228.113,125.478c-11.142-10.559-24.388-11.352-27.659-11.455-23.038-.004-46.076-.007-69.114-.011v-45.798s69.114,0,69.114,0v-12.681h-85.362s0,141.239,0,141.239l85.362-.011c20.603-.673,40.306-17.839,40.663-41.369-.033-2.792-.492-18.057-13.004-29.915Zm-9.374,46.106c-6.274,7.277-14.494,8.463-16.402,8.689l-70.625.134v-50.384c23.542.044,47.083.089,70.625.133,11.854,1,22.782,11.442,22.593,24.992-.023,2.059-.354,9.667-6.191,16.436Z" />
    <path class="cls-1"
      d="m116.27,130.007l-56.384-.003c-20.073.441-45.069-8.073-59.886-19.704,3.332-4.031,6.664-8.063,9.995-12.094,11.473,8.756,30.287,15.452,43.427,16.45,20.949-.183,41.898-.367,62.847-.55v15.9Z" />
  </g>
  <g>
    <path
      d="m265.707,97.724l23.183-50.4h3.673l23.185,50.4h-3.961l-21.888-48.096h1.584l-21.816,48.096h-3.96Zm8.496-14.184l1.224-3.096h30.168l1.224,3.096h-32.616Z" />
    <path
      d="m327.051,97.724v-37.584h3.6v17.136h25.488v-17.136h3.6v37.584h-3.6v-17.28h-25.488v17.28h-3.6Z" />
    <path
      d="m377.45,97.724v-37.584h3.6v17.136h25.488v-17.136h3.6v37.584h-3.6v-17.28h-25.488v17.28h-3.6Z" />
    <path
      d="m437.786,98.012c-2.784,0-5.196-.443-7.236-1.332-2.04-.888-3.6-2.147-4.68-3.78-1.08-1.631-1.62-3.503-1.62-5.616,0-1.919.443-3.66,1.332-5.22.888-1.559,2.364-2.832,4.428-3.816,2.063-.983,4.824-1.476,8.28-1.476h13.824v2.808h-13.752c-3.888,0-6.613.72-8.172,2.16-1.561,1.44-2.34,3.24-2.34,5.4,0,2.401.911,4.32,2.735,5.76,1.824,1.44,4.393,2.16,7.704,2.16,3.168,0,5.844-.72,8.028-2.16,2.184-1.44,3.804-3.528,4.859-6.264l1.009,2.448c-1.009,2.736-2.725,4.909-5.148,6.516-2.424,1.609-5.508,2.412-9.252,2.412Zm13.536-.288v-8.568l-.145-1.296v-14.112c0-3.503-.948-6.167-2.844-7.992-1.896-1.824-4.669-2.736-8.315-2.736-2.593,0-5.004.444-7.236,1.332-2.232.889-4.14,2.028-5.724,3.42l-1.801-2.592c1.872-1.68,4.128-2.988,6.769-3.924,2.639-.936,5.399-1.404,8.28-1.404,4.655,0,8.231,1.177,10.728,3.528,2.495,2.353,3.744,5.857,3.744,10.512v23.832h-3.456Z" />
    <path
      d="m273.411,184.124v-50.4h35.929v3.24h-32.256v18.144h17.064c5.903,0,10.392,1.201,13.464,3.6,3.071,2.401,4.607,5.929,4.607,10.584,0,4.849-1.619,8.532-4.859,11.052s-7.98,3.78-14.221,3.78h-19.728Zm3.672-3.096h16.127c5.041,0,8.856-.972,11.448-2.916,2.593-1.944,3.888-4.835,3.888-8.676,0-7.535-5.111-11.304-15.336-11.304h-16.127v22.896Z" />
    <path
      d="m341.883,184.412c-3.793,0-7.141-.816-10.044-2.448-2.905-1.631-5.185-3.888-6.841-6.768-1.655-2.88-2.483-6.167-2.483-9.864,0-3.744.78-7.043,2.34-9.9,1.56-2.855,3.708-5.1,6.444-6.732,2.736-1.631,5.807-2.448,9.216-2.448s6.468.792,9.18,2.376,4.848,3.805,6.408,6.66c1.56,2.856,2.34,6.156,2.34,9.9,0,.144-.012.3-.036.468-.024.168-.035.349-.035.54h-33.192v-2.808h31.248l-1.44,1.368c.048-2.927-.564-5.555-1.836-7.884-1.272-2.328-2.987-4.151-5.147-5.472-2.16-1.319-4.657-1.98-7.488-1.98-2.784,0-5.269.661-7.452,1.98-2.185,1.321-3.9,3.145-5.148,5.472-1.248,2.329-1.871,4.98-1.871,7.956v.648c0,3.072.684,5.796,2.052,8.172s3.251,4.225,5.651,5.544c2.4,1.321,5.137,1.98,8.209,1.98,2.399,0,4.644-.432,6.731-1.296,2.088-.864,3.853-2.184,5.292-3.96l2.088,2.376c-1.632,2.016-3.685,3.541-6.155,4.572-2.474,1.033-5.148,1.548-8.028,1.548Z" />
    <path
      d="m366.003,184.124l15.624-20.304-.072,1.728-14.76-19.008h4.104l12.888,16.632h-1.512l12.816-16.632h4.031l-14.903,19.224.071-1.944,15.841,20.304h-4.248l-13.608-17.712,1.368.144-13.536,17.568h-4.104Z" />
    <path
      d="m418.273,184.124v-35.424l1.008,1.08h-15.696v-3.24h32.977v3.24h-15.696l1.008-1.08v35.424h-3.6Z" />
    <path
      d="m461.4,184.412c-3.6,0-6.804-.816-9.612-2.448-2.808-1.631-5.04-3.888-6.695-6.768-1.656-2.88-2.484-6.167-2.484-9.864,0-3.744.828-7.043,2.484-9.9,1.655-2.855,3.888-5.1,6.695-6.732,2.809-1.631,6.013-2.448,9.612-2.448s6.815.817,9.648,2.448c2.831,1.632,5.063,3.876,6.695,6.732,1.632,2.856,2.448,6.156,2.448,9.9,0,3.697-.816,6.984-2.448,9.864-1.632,2.88-3.864,5.137-6.695,6.768-2.833,1.632-6.049,2.448-9.648,2.448Zm0-3.24c2.88,0,5.472-.659,7.776-1.98,2.304-1.319,4.104-3.179,5.399-5.58,1.296-2.399,1.944-5.159,1.944-8.28,0-3.168-.648-5.94-1.944-8.316s-3.096-4.223-5.399-5.544c-2.305-1.32-4.896-1.98-7.776-1.98s-5.461.66-7.74,1.98c-2.28,1.321-4.08,3.168-5.399,5.544-1.321,2.376-1.98,5.148-1.98,8.316,0,3.121.659,5.88,1.98,8.28,1.319,2.401,3.119,4.261,5.399,5.58,2.279,1.321,4.86,1.98,7.74,1.98Z" />
    <path
      d="m486.672,183.98l.359-3.096c.288.049.588.108.9.18.312.072.587.108.828.108,1.631,0,2.927-.612,3.888-1.836.96-1.224,1.692-2.868,2.196-4.932.504-2.063.864-4.392,1.08-6.984.216-2.592.396-5.231.54-7.92l.647-12.96h26.353v37.584h-3.601v-35.496l1.008,1.152h-21.456l.937-1.224-.576,11.232c-.192,3.265-.457,6.384-.792,9.36-.336,2.977-.84,5.616-1.512,7.92-.673,2.304-1.633,4.117-2.88,5.436-1.249,1.321-2.856,1.98-4.824,1.98-.48,0-.972-.048-1.476-.144-.505-.097-1.045-.216-1.62-.36Z" />
    <path
      d="m556.223,160.22c4.655.048,8.208,1.068,10.656,3.06,2.447,1.993,3.672,4.909,3.672,8.748,0,3.985-1.296,7.033-3.889,9.144-2.592,2.113-6.36,3.144-11.304,3.096l-14.184-.144v-37.584h3.6v13.536l11.448.144Zm-.937,21.168c3.84.048,6.732-.72,8.677-2.304,1.943-1.584,2.916-3.935,2.916-7.056,0-3.024-.961-5.279-2.881-6.768-1.92-1.487-4.823-2.256-8.712-2.304l-10.512-.072v18.36l10.512.144Z" />
    <path
      d="m576.095,193.484v-12.528h42.408v12.528h-3.384v-9.36h-35.568v9.36h-3.456Zm32.761-11.088v-32.616h-19.584l-.433,9.36c-.097,2.64-.265,5.268-.504,7.884-.24,2.617-.624,5.017-1.152,7.2-.528,2.185-1.26,3.949-2.195,5.292-.937,1.344-2.149,2.088-3.637,2.232l-3.6-.792c1.536.097,2.783-.468,3.744-1.692.96-1.224,1.703-2.892,2.231-5.004.528-2.112.924-4.5,1.188-7.164.264-2.664.468-5.388.612-8.172l.504-12.384h26.424v35.856h-3.6Z" />
  </g>
</svg>